<svg xmlns="http://www.w3.org/2000/svg" width="512" height="512" viewBox="0 0 24 24" fill="#ffffff"><path fill="#ffffff" d="M12 16q1.2 0 2.138-.713T15.5 13.45h-7q.425 1.125 1.363 1.838T12 16Zm-2.5-4q.625 0 1.063-.438T11 10.5q0-.625-.438-1.063T9.5 9q-.625 0-1.063.438T8 10.5q0 .625.438 1.063T9.5 12Zm5 0q.625 0 1.063-.438T16 10.5q0-.625-.438-1.063T14.5 9q-.625 0-1.063.438T13 10.5q0 .625.438 1.063T14.5 12ZM7.625 6.4L12 .725L16.375 6.4l6.85 2.3l-4.325 6.125l.175 6.825L12 19.675L4.925 21.65L5.1 14.8L.8 8.7l6.825-2.3Z"/></svg>